<?xml version="1.0" encoding="UTF-8"?>
<svg width="16px" height="16px" viewBox="0 0 16 16" version="1.1" xmlns="http://www.w3.org/2000/svg" xmlns:xlink="http://www.w3.org/1999/xlink">
    <!-- Generator: Sketch 48.2 (47327) - http://www.bohemiancoding.com/sketch -->
    <title>Java</title>
    <desc>Created with Sketch.</desc>
    <defs></defs>
    <g id="Page-1" stroke="none" stroke-width="1" fill="none" fill-rule="evenodd">
        <g id="Java" fill="#000000" fill-rule="nonzero">
            <path d="M8.70068339,9.42311744 C8.79202704,9.41724647 8.88316895,9.4110531 8.97390791,9.40454327 C10.2023714,9.31581358 11.4358974,9.12715932 11.4358974,9.12715932 C11.4358974,9.12715932 11.002726,9.28599829 10.6893371,9.46922473 C7.67496599,10.1480408 1.85176009,9.83224753 3.52818624,9.13790187 C4.94594215,8.55109479 6.09868872,8.61766091 6.09868872,8.61766091 C6.09868872,8.61766091 3.13027605,9.22135452 5.04749971,9.44057793 C5.80637787,9.52757404 7.27202583,9.51456459 8.6907776,9.42375281 C8.81118131,9.31964079 9.6275012,8.56100868 8.88614071,7.72461349 C6.17975121,4.66882736 11.8461538,3.28205128 11.8461538,3.28205128 C8.23622178,5.33362478 8.90304895,5.9286506 9.77259659,7.12622149 C10.6431223,8.32694879 8.92734308,9.30153014 8.70068339,9.42311744 Z M5.63174885,12.3076923 C3.20092799,12.9477596 7.11030255,14.2700969 10.2051282,13.0201587 C9.6982296,12.8344026 9.33527042,12.6199359 9.33527042,12.6199359 C7.95472166,12.8661651 7.31445111,12.8854795 6.06169227,12.7508004 C5.02761229,12.6387685 5.63174885,12.3076923 5.63174885,12.3076923 Z M5.32237475,10.6666667 C2.61316624,11.5211111 6.82971794,12.4900522 10.6153846,11.4381573 C10.2129953,11.3033421 9.95709402,11.0568157 9.95709402,11.0568157 C8.10693964,11.3953491 7.03772398,11.3844934 5.68380948,11.2517673 C4.6368386,11.1488637 5.32237475,10.6666667 5.32237475,10.6666667 Z M12.7689067,13.6689727 C12.7689067,13.6689727 13.2206235,14.028525 12.2714241,14.3066841 C10.4664942,14.8348869 4.75911325,14.9943875 3.17362681,14.327729 C2.60368521,14.0882078 3.67248716,13.7558143 4.00869157,13.6860666 C4.35931889,13.6126172 4.55968966,13.6263006 4.55968966,13.6263006 C3.92585673,13.1949627 0.462852283,14.4732551 2.80065475,14.8393371 C9.1761822,15.8381396 14.4226329,14.3895745 12.7689067,13.6689727 Z M11.4943014,11.8154985 C11.4808589,11.8541974 11.4358974,11.8974808 11.4358974,11.8974359 C15.3169005,10.7989901 13.890074,8.02557077 12.0347988,8.72781376 C11.8718188,8.7901095 11.7864881,8.93402797 11.7864881,8.93402797 C11.7864881,8.93402797 11.8889768,8.88939616 12.1188354,8.83788756 C13.0566384,8.62740344 14.4002215,10.1897413 11.4943014,11.8154985 Z M9.37066054,3.55271368e-15 C9.37066054,3.55271368e-15 11.0240567,1.63228396 7.80248614,4.14227557 C5.21911363,6.15572067 7.21339674,7.30373315 7.80141389,8.61538462 C6.29345656,7.27266461 5.18681772,6.09066296 5.92923763,4.99056545 C7.01893505,3.37572052 10.0377662,2.59278464 9.37066054,3.55271368e-15 Z M6.35382466,15.9455563 C9.28681962,16.1452095 13.7907656,15.8347831 13.8974359,14.3589744 C13.8974359,14.3589744 13.6923918,14.918442 11.4734735,15.3627484 C8.97010094,15.8637251 5.88254375,15.8052343 4.05128205,15.4841648 C4.05132595,15.4841181 4.42616459,15.8141036 6.35382466,15.9455563 Z" id="Combined-Shape"></path>
        </g>
    </g>
</svg>