<?xml version="1.0" encoding="UTF-8"?>
<svg width="16px" height="16px" viewBox="0 0 16 16" version="1.1" xmlns="http://www.w3.org/2000/svg" xmlns:xlink="http://www.w3.org/1999/xlink">
    <!-- Generator: Sketch 48.2 (47327) - http://www.bohemiancoding.com/sketch -->
    <title>Net</title>
    <desc>Created with Sketch.</desc>
    <defs></defs>
    <g id="Page-1" stroke="none" stroke-width="1" fill="none" fill-rule="evenodd">
        <g id="Net" fill="#231F20">
            <path d="M5.56874872,5.56908034 C5.94427009,5.36655043 6.30891966,5.23287521 6.71397949,5.26060171 C7.02283419,5.2817641 7.25678291,5.44446496 7.44543248,5.68070427 C7.87144957,6.21417436 8.11401368,6.8360547 8.32197949,7.47687521 C8.56529573,8.22665299 8.80645812,8.97762735 9.07613333,9.71803761 C9.18591111,10.0194735 9.36143248,10.2982769 9.52016752,10.5799863 C9.60686838,10.7338325 9.59572308,10.8497641 9.46939829,10.9741402 C9.13897094,11.2995077 8.7882359,11.3069265 8.45312479,10.9775248 C7.86351795,10.397935 7.50143248,9.68282393 7.22929573,8.91359316 C7.0099453,8.2934906 6.80375726,7.66750769 6.5530906,7.06008889 C6.32662906,6.51137094 5.98351795,6.02627692 5.56874872,5.56908034 Z M7.20924103,5.27759658 C8.17539487,5.12952821 8.88390769,5.53253675 9.22346325,6.43287863 C9.61498462,7.47099829 9.87737778,8.5469641 10.1067111,9.63051966 C10.1281812,9.73202393 10.0898564,9.85575043 10.0506085,9.95821197 C9.99624957,10.1002632 9.91471111,10.2319214 9.82489915,10.4068274 C9.76510427,10.323135 9.71023248,10.2646735 9.67624957,10.1958872 C9.27402735,9.38248547 9.03884786,8.50959658 8.76753162,7.64908376 C8.64650598,7.2652547 8.5070188,6.88658803 8.36021538,6.51171624 C8.14134359,5.95284444 7.81105299,5.49051966 7.20924103,5.27759658 Z M4.18498462,5.28876581 C4.14683077,5.32473162 4.11479658,5.37416752 4.06963419,5.39457778 C3.5638906,5.62315897 3.17948034,6.00285128 2.82864274,6.41444103 C2.00043761,7.38609915 1.52255726,8.53785983 1.18163419,9.7496547 C1.04676239,10.2290051 0.972882051,10.7255521 0.872198291,11.2144752 C0.827480342,11.4316718 0.757976068,11.4967658 0.540882051,11.5028855 C0.439001709,11.5057573 0.336369231,11.497894 0.234659829,11.4884239 C0.00406153846,11.4669538 -0.0452376068,11.4084923 0.0374974359,11.1739624 C0.307138462,10.4095521 0.559309402,9.63669744 0.876266667,8.89180855 C1.3270359,7.83256068 1.96156581,6.88391111 2.76019829,6.04866325 C3.08536068,5.70859487 3.47971966,5.47830427 3.90761709,5.29956923 C3.98662564,5.26657778 4.07927521,5.26616752 4.16563419,5.25074872 C4.17206154,5.26339829 4.17852308,5.27608205 4.18498462,5.28876581 Z M2.61822906,9.79190427 L2.78681026,9.38862222 C3.18216068,8.44246838 3.6038359,7.50766496 4.23590427,6.6921094 C4.47426325,6.38455385 4.76595556,6.11446838 5.05549402,5.85173333 C5.29187009,5.63723761 5.41463932,5.67190427 5.58766496,5.93805812 C6.01087863,6.58906667 6.24438291,7.31747692 6.47645128,8.05063932 C6.68178462,8.69942564 6.92352821,9.33727179 7.16663932,9.97330598 C7.3821265,10.5369299 7.7232547,11.0023658 8.29180171,11.2640068 C8.29942564,11.267494 8.30243419,11.2809983 8.31313504,11.2993573 C7.83392137,11.3650667 7.4261265,11.2344 7.07956239,10.9046906 C6.71238291,10.5553915 6.50739145,10.1137162 6.37822906,9.63662222 C6.10824615,8.63932308 5.85159658,7.63843419 5.58903248,6.63915214 C5.57474188,6.58458803 5.55679316,6.5309812 5.53207521,6.44872479 C5.46205812,6.50636581 5.40014359,6.55033162 5.34643419,6.6026735 C4.84790427,7.0886906 4.52171624,7.68975043 4.25265641,8.31809231 C4.04092991,8.81251966 3.86113504,9.32328889 3.70537436,9.8384 C3.42913504,10.7518701 2.78404103,11.3221607 1.83187009,11.4429812 C1.67433162,11.4629812 1.51494701,11.4708444 1.3561094,11.4777504 C1.25282735,11.4822291 1.21022906,11.4162462 1.22575043,11.3225026 C1.48564786,9.75190427 1.90636581,8.23874188 2.79973333,6.89238291 C3.19822906,6.29180171 3.66434872,5.76274188 4.30441709,5.40910085 C4.5512547,5.2726906 4.80287863,5.21241709 5.06021197,5.38407521 C5.1941265,5.47344274 5.1969641,5.54116923 5.05569915,5.61952821 C4.15152821,6.12106667 3.5686906,6.8975453 3.19703248,7.83740855 C2.96800684,8.41655385 2.78975043,9.01576752 2.59159658,9.6069812 C2.5729641,9.66257094 2.57522051,9.72520342 2.56776752,9.78458803 C2.58458803,9.78701538 2.60140855,9.78947692 2.61822906,9.79190427 Z M14.1254393,5.20431453 C14.0526872,5.20431453 13.9770291,5.19108376 13.9076957,5.20646838 C13.4901573,5.29918632 13.1618496,5.53057094 12.9047897,5.86858803 C12.4717641,6.43798974 12.2090632,7.09132308 11.9847214,7.76103248 C11.6900547,8.64075897 11.3576444,9.5029812 10.8789778,10.3018872 C10.839388,10.3679385 10.786465,10.4259556 10.7207897,10.5127932 C10.4884821,10.1326906 10.4307726,9.76934017 10.5658838,9.37149402 C10.7848581,8.72670769 10.9961402,8.0792547 11.2056786,7.43132308 C11.2772342,7.20998974 11.3412342,6.98557949 11.3956274,6.75942564 C11.6151829,5.84704957 12.2223282,5.34855385 13.1110803,5.16462222 C13.4380889,5.0969641 13.7732,5.0615453 14.1064991,5.03508376 C14.2217812,5.02592137 14.3425675,5.08923761 14.4613026,5.11751111 C14.5003795,5.12681026 14.5410291,5.13580171 14.5807214,5.1349812 C14.6813709,5.13286154 14.7818496,5.12510085 14.910294,5.11809231 C14.2861573,6.40216068 13.6743624,7.66089573 13.0625675,8.91963077 L13.1066359,8.94588718 C13.2523453,8.72793846 13.4116957,8.51778462 13.5414393,8.29070769 C14.0689265,7.36780171 14.5904308,6.44144274 15.1075248,5.51265641 C15.3231829,5.12530598 15.5919692,4.99655385 15.9777128,5.13887863 C15.9495077,5.20892991 15.929747,5.28404103 15.8917641,5.34834872 C15.1226017,6.6504 14.3676957,7.96134017 13.5722769,9.24715214 C13.259935,9.7521094 12.8802085,10.2220239 12.4838325,10.6655795 C12.274841,10.8994598 11.9768923,11.0660239 11.695388,11.2194598 C11.4210291,11.3689983 11.1426017,11.2584342 10.9734051,10.9943658 C10.9179179,10.9078359 10.907935,10.8300923 10.9764821,10.7451692 C11.7189094,9.82499829 12.1089949,8.7344 12.498841,7.63949402 C12.671559,7.1544 12.8943624,6.68489573 13.1236274,6.22281026 C13.3407897,5.78499829 13.6753197,5.44708376 14.1374051,5.24824615 L14.1254393,5.20431453 Z" id="Fill-8"></path>
        </g>
    </g>
</svg>