<?xml version="1.0" encoding="UTF-8"?>
<svg width="16px" height="16px" viewBox="0 0 16 16" version="1.1" xmlns="http://www.w3.org/2000/svg" xmlns:xlink="http://www.w3.org/1999/xlink">
    <!-- Generator: Sketch 48.2 (47327) - http://www.bohemiancoding.com/sketch -->
    <title>Php</title>
    <desc>Created with Sketch.</desc>
    <defs></defs>
    <g id="Page-1" stroke="none" stroke-width="1" fill="none" fill-rule="evenodd">
        <g id="Php" fill="#000000" fill-rule="nonzero">
            <path d="M2.86217662,10.1443276 L1.64551848,10.1348456 L1.30289636,11.7610064 L-3.19744231e-14,11.7610064 L1.17470441,5.64275426 C1.17470441,5.64275426 2.84353052,5.66408873 3.938989,5.64275426 C5.03444748,5.62141978 6.11125985,6.40842471 5.6078151,8.19103827 C5.0018168,10.3197444 2.86217662,10.1443276 2.86217662,10.1443276 Z M3.4810971,6.74320685 L2.33038931,6.74320685 L1.85761789,9.18927995 L2.93250385,9.18927995 C2.93250385,9.18927995 4.24154547,9.22291066 4.30175692,7.60415284 C4.36419843,6.6737034 3.4810971,6.74320685 3.4810971,6.74320685 Z M8.71938334,10.1443276 C8.71938334,10.1443276 9.03170554,8.72202955 9.16922054,7.7359029 C9.22515885,7.33054795 9.47221969,6.64073339 8.81960613,6.64073339 C8.27420766,6.6383629 7.4584407,6.6359924 7.4584407,6.6359924 L6.7708657,10.1466981 L5.48195392,10.1466981 L6.68462748,4 L8.00383918,4 L7.67287087,5.64275426 L9.0340363,5.64275426 C9.0340363,5.64275426 10.8380466,5.49815395 10.6236165,7.01290138 C10.4091863,8.52764881 10.0082951,10.1443276 10.0082951,10.1443276 L8.71938334,10.1443276 Z M15.8724941,8.19340877 C15.2711573,10.3197444 13.1291864,10.1443276 13.1291864,10.1443276 L11.9125283,10.1348456 L11.5699061,11.7610064 L10.2670098,11.7610064 L11.4417142,5.64275426 C11.4417142,5.64275426 13.1105403,5.66408873 14.2059988,5.64275426 C15.2991265,5.62141978 16.3759389,6.40842471 15.8724941,8.19340877 Z M13.6780405,6.74320685 L12.5274344,6.74320685 L12.0547048,9.18927995 L13.1294958,9.18927995 C13.1294958,9.18927995 14.4384217,9.22291066 14.4986279,7.60415284 C14.5632937,6.6737034 13.6780405,6.74320685 13.6780405,6.74320685 Z" id="Shape"></path>
        </g>
    </g>
</svg>