<?xml version="1.0" encoding="UTF-8"?>
<svg width="72px" height="16px" viewBox="0 0 72 16" version="1.1" xmlns="http://www.w3.org/2000/svg" xmlns:xlink="http://www.w3.org/1999/xlink">
    <!-- Generator: Sketch 48.2 (47327) - http://www.bohemiancoding.com/sketch -->
    <title>Appsfly Logo</title>
    <desc>Created with Sketch.</desc>
    <defs></defs>
    <g id="Sign-in" stroke="none" stroke-width="1" fill="none" fill-rule="evenodd" transform="translate(-664.000000, -330.000000)">
        <g id="Group-3" transform="translate(576.000000, 264.000000)" fill-rule="nonzero">
            <g id="Page-1">
                <g id="Group-2" transform="translate(30.000000, 66.000000)">
                    <g id="Appsfly-Logo" transform="translate(58.000000, 0.000000)">
                        <path d="M19.9995846,7.63970145 L19.9995846,10.6403332 C19.9995846,11.24623 19.4864874,11.7944223 18.8130473,11.880979 C16.407904,12.1983535 13.9386236,11.9963879 14.0027608,9.83247079 C13.9065551,7.98592819 16.3437669,7.46658808 18.3320186,7.8993715 L18.3320186,7.63970145 C18.3320186,6.74528237 17.7547842,6.28364672 16.8247955,6.31249895 C16.183424,6.31249895 15.5420525,6.39905564 14.9327495,6.57216901 L14.8686124,6.13938558 C14.8044752,5.6488977 15.1572296,5.21611428 15.6703268,5.1295576 C18.2037443,4.69677417 20.0316532,5.30267097 19.9995846,7.63970145 Z M17.1134127,10.7845943 C17.5303042,10.7845943 17.9151271,10.7557421 18.3320186,10.6980376 L18.3320186,8.96690395 C17.3378927,8.70723389 15.6382582,8.79379058 15.7344639,9.77476633 C15.6382582,10.4672198 16.3758355,10.7845943 17.1134127,10.7845943 Z" id="Shape" fill="#909BA3"></path>
                        <path d="M22.5138538,11.476377 L22.5138538,12.4971683 C22.5138538,13.3478278 21.8283351,14 21,14 L21,5.35162909 C22.6852335,4.89794405 24.7989161,4.69945685 26.0557004,5.91873537 C28.369326,8.32893711 26.1413902,13.3478278 22.5138538,11.476377 Z M22.5138538,6.40077572 L22.5138538,10.1436772 C23.2279358,10.6257176 24.3990302,10.7674941 24.9988591,9.94519003 C25.8843207,8.49906899 25.398745,5.60682692 22.5138538,6.40077572 Z" id="Shape" fill="#909BA3"></path>
                        <path d="M30.5222301,11.4755901 L30.5222301,12.4966997 C30.5222301,13.3476244 29.8329183,14 29,14 L29,5.34893244 C31.3551484,4.72492101 33.9400673,4.75328517 34.7442643,6.99405349 C35.8069533,10.0573823 33.3943622,12.9505262 30.5222301,11.4755901 Z M33.3943622,8.44062544 C33.4230835,7.87334232 33.2794769,7.3060592 32.9348211,6.85223271 C32.3603946,6.14312881 31.0966565,6.22822128 30.5222301,6.39840621 L30.5222301,10.1424748 C31.8721322,11.0217636 33.5092475,10.4261164 33.3943622,8.44062544 Z" id="Shape" fill="#909BA3"></path>
                        <path d="M39.3941936,10.0814676 C39.3941936,9.36526435 38.3408232,9.25067182 37.2874527,8.73500545 C34.888109,7.61772831 36.1463014,3.83617491 40.6231258,5.3545259 C40.5353449,5.72695161 40.447564,6.55774743 39.6867965,6.38585864 C38.6626864,6.15667359 37.3459733,6.27126612 37.7556174,7.21665447 C38.1067409,7.96150589 40.3597832,7.93285776 40.8572081,9.30796809 C41.7057565,11.8290037 38.6041658,12.545207 36,11.5998186 L36.0877809,11.1987448 C36.1755617,10.7690228 36.6144661,10.4825415 37.0533704,10.5684859 C37.0533704,10.5684859 37.0533704,10.5684859 37.0533704,10.5684859 C37.8726585,10.7403747 39.4527142,10.9122635 39.3941936,10.0814676 Z" id="Shape" fill="#909BA3"></path>
                        <path d="M47.2645962,2.24437759 C47.1450633,2.85332378 47.1151801,3.4912674 46.577282,3.37527765 C45.2325366,3.11430071 44.5751055,3.7232469 44.634872,4.79615209 L44.634872,5.23111366 L47.1749466,5.23111366 L47.1749466,6.53599835 L44.634872,6.53599835 L44.634872,10.421655 C44.634872,11.2915781 43.9176745,11.9585192 43.0211776,11.9585192 C43.0211776,4.01322128 42.811995,3.78124178 43.7084919,2.73733403 C44.5153391,1.89640834 46.1589167,1.83841346 47.2645962,2.24437759 Z M50.9701168,11.1465909 C50.8804671,11.6975422 50.3425689,12.0745089 49.7449043,11.9875166 C49.6851379,11.9875166 49.6552546,11.9585192 49.5954882,11.9585192 C47.9817938,11.5235576 48.3403925,10.6826319 48.3403925,2.27337503 C49.0874733,2.15738527 49.8046708,2.65034171 49.9242037,3.37527765 C49.9242037,3.43327253 49.9540869,3.52026484 49.9540869,3.60725715 C49.9540869,10.624637 49.6253714,10.6826319 51,10.8276191 L50.9701168,11.1465909 Z" id="Shape" fill="#909BA3"></path>
                        <path d="M55.8,5 C56.4571429,5 57,5.5431254 57,6.20059299 C57,6.20059299 57,6.20059299 57,6.20059299 C57,6.57220511 55.2285714,12.4036568 53.9142857,13.4899076 C53.1428571,14.1187896 51.8,14.1187896 51,13.7471775 C51.4,11.8891169 52.9142857,13.5756642 53.6857143,11.5175048 C52.6,9.43075985 51.7428571,7.25825825 51.1142857,5 C53.5428571,5 52.4285714,5.45736876 54.4,9.85954306 C54.9428571,8.25875241 55.4285714,6.65796175 55.8,5 Z" id="Shape" fill="#909BA3"></path>
                        <path d="M59.9988634,11.0107527 C60.0559413,12.3297491 57.9440587,12.3297491 58.0011366,11.0107527 C57.9440587,9.66308244 60.0559413,9.66308244 59.9988634,11.0107527 Z" id="Shape" fill="#909BA3"></path>
                        <path d="M63.998728,3.0041654 C64.0592108,4.29788075 61.9423139,4.29788075 62.0027967,3.0041654 C61.9120725,1.68036365 64.0592108,1.65027725 63.998728,3.0041654 Z M63.8172797,12 L62.184245,12 L62.184245,5.01995443 C63.0914865,5.01995443 63.8172797,5.74202811 63.8172797,6.6145338 C63.8172797,6.6145338 63.8172797,6.6145338 63.8172797,6.6145338 L63.8172797,12 Z" id="Shape" fill="#909BA3"></path>
                        <path d="M68.4810975,11.9996522 C63.8552751,12.0572394 63.8240195,4.9452149 68.4810975,5.00280214 C69.9188531,4.9452149 71.2315865,5.78022992 71.7316754,7.04714926 C72.606831,9.3794326 71.2940976,12.0284458 68.4810975,11.9996522 Z M70.2626642,8.48683034 C70.3876865,6.61524494 68.6686308,5.80902354 67.4809197,6.67283218 C66.6682752,7.24870461 66.4182308,8.94752828 67.1996197,10.0992731 C68.1685419,11.2222244 70.3876865,10.7039392 70.2626642,8.48683034 Z" id="Shape" fill="#909BA3"></path>
                        <g id="Group" fill="#358FFF">
                            <path d="M7.17894737,13.3037037 L7.17894737,14.8740741 C7.17894737,15.0222222 7.09210526,15.2 6.94736842,15.2592593 L5.84736842,15.8222222 C5.73157895,15.8814815 5.58684211,15.8814815 5.47105263,15.8222222 L4.34210526,15.2592593 C4.19736842,15.2 4.11052632,15.0222222 4.11052632,14.8740741 L4.11052632,13.3037037 C4.08157895,13.1555556 4.19736842,13.0074074 4.37105263,12.9777778 C4.42894737,12.9777778 4.51578947,12.9777778 4.57368421,13.037037 L5.5,13.5407407 C5.58684211,13.6 5.67368421,13.6 5.76052632,13.5407407 L6.71578947,13.037037 C6.86052632,12.9481481 7.03421053,13.037037 7.12105263,13.1851852 C7.15,13.2148148 7.17894737,13.2740741 7.17894737,13.3037037" id="Shape"></path>
                            <path d="M3.41578947,10.8740741 C3.53157895,11.0518519 3.27105263,11.2592593 3.12631579,11.1111111 C0.0578947368,7.91111111 -1.07105263,3.91111111 2.54736842,1.39259259 C2.72105263,1.27407407 2.92368421,1.45185185 2.83684211,1.62962963 C1.91052632,3.05185185 0.492105263,6.4 3.41578947,10.8740741" id="Shape"></path>
                            <path d="M8.45263158,6.04444444 C8.27894737,8.85925926 6.31052632,11.3481481 5.76052632,12.3555556 C5.73157895,12.4148148 5.64473684,12.4740741 5.55789474,12.4148148 C5.52894737,12.4148148 5.5,12.3851852 5.5,12.3555556 C4.97894737,11.3481481 2.98157895,8.88888889 2.80789474,6.04444444 C2.63421053,2.78518519 3.76315789,0.177777778 5.64473684,0.296296296 C7.52631579,0.177777778 8.62631579,2.78518519 8.45263158,6.04444444" id="Shape"></path>
                            <path d="M7.75789474,10.8740741 C7.64210526,11.0518519 7.90263158,11.2592593 8.04736842,11.0814815 C11.1447368,7.82222222 12.2157895,3.85185185 8.62631579,1.36296296 C8.53947368,1.3037037 8.42368421,1.3037037 8.36578947,1.39259259 C8.33684211,1.45185185 8.30789474,1.54074074 8.33684211,1.6 C9.26315789,3.05185185 10.6815789,6.4 7.75789474,10.8740741" id="Shape"></path>
                        </g>
                    </g>
                </g>
            </g>
        </g>
    </g>
</svg>